<svg version="1.2" xmlns="http://www.w3.org/2000/svg" xmlns:xlink="http://www.w3.org/1999/xlink" overflow="visible" preserveAspectRatio="none" viewBox="0 0 9 16" width="9" height="16"><g transform="translate(0, 0)"><defs><path id="path-168586231773810441" d="M5.971903545725696 2.025608474437864 C6.092478235969907 1.9098784222729661 6.256195897232054 1.8448373364819548 6.426930204181765 1.8448373364819548 C6.5976645111314784 1.8448373364819548 6.761382172393624 1.9098784222729661 6.881956862637834 2.025608474437864 C6.881956862637834 2.025608474437864 14.594273107655953 9.409357469958634 14.594273107655953 9.409357469958634 C14.715152996976347 9.524795325421447 14.783088326690825 9.681538135037723 14.783088326690825 9.844998660694358 C14.783088326690825 10.008459186350994 14.715152996976347 10.16520199596727 14.594273107655953 10.280639851430083 C14.594273107655953 10.280639851430083 6.881956862637834 17.664388846950853 6.881956862637834 17.664388846950853 C6.630652578406082 17.90498683299232 6.223207829957447 17.90498683299232 5.971903545725695 17.664388846950853 C5.720599261493944 17.423790860909385 5.720599261493944 17.033704451520872 5.971903545725695 16.7931064654794 C5.971903545725695 16.7931064654794 13.230478518328582 9.844998660694358 13.230478518328582 9.844998660694358 C13.230478518328582 9.844998660694358 5.971903545725696 2.896890855909315 5.971903545725696 2.896890855909315 C5.8510236564052995 2.781453000446501 5.783088326690825 2.624710190830225 5.783088326690825 2.4612496651735896 C5.783088326690825 2.2977891395169543 5.8510236564052995 2.1410463299006786 5.971903545725696 2.025608474437864 Z" vector-effect="non-scaling-stroke"/></defs><g transform="translate(-5.783088326690825, -1.8448373364819548)"><path style="stroke-width: 0; stroke-linecap: butt; stroke-linejoin: miter; fill: rgb(241, 241, 241);" d="M5.971903545725696 2.025608474437864 C6.092478235969907 1.9098784222729661 6.256195897232054 1.8448373364819548 6.426930204181765 1.8448373364819548 C6.5976645111314784 1.8448373364819548 6.761382172393624 1.9098784222729661 6.881956862637834 2.025608474437864 C6.881956862637834 2.025608474437864 14.594273107655953 9.409357469958634 14.594273107655953 9.409357469958634 C14.715152996976347 9.524795325421447 14.783088326690825 9.681538135037723 14.783088326690825 9.844998660694358 C14.783088326690825 10.008459186350994 14.715152996976347 10.16520199596727 14.594273107655953 10.280639851430083 C14.594273107655953 10.280639851430083 6.881956862637834 17.664388846950853 6.881956862637834 17.664388846950853 C6.630652578406082 17.90498683299232 6.223207829957447 17.90498683299232 5.971903545725695 17.664388846950853 C5.720599261493944 17.423790860909385 5.720599261493944 17.033704451520872 5.971903545725695 16.7931064654794 C5.971903545725695 16.7931064654794 13.230478518328582 9.844998660694358 13.230478518328582 9.844998660694358 C13.230478518328582 9.844998660694358 5.971903545725696 2.896890855909315 5.971903545725696 2.896890855909315 C5.8510236564052995 2.781453000446501 5.783088326690825 2.624710190830225 5.783088326690825 2.4612496651735896 C5.783088326690825 2.2977891395169543 5.8510236564052995 2.1410463299006786 5.971903545725696 2.025608474437864 Z" vector-effect="non-scaling-stroke"/></g></g></svg>