<svg version="1.2" xmlns="http://www.w3.org/2000/svg" xmlns:xlink="http://www.w3.org/1999/xlink" overflow="visible" preserveAspectRatio="none" viewBox="0 0 42.00000000000001 42" width="42.00000000000001" height="42"><g transform="translate(0, 0)"><g transform="translate(4.440892098500626e-16, 0) rotate(0)"><path style="stroke-width: 0; stroke-linecap: butt; stroke-linejoin: miter; fill: rgb(255, 255, 255);" d="M40.27317,8.75l-19.25854,-8.75l-19.2878,8.75c-1.01128,0.45181 -1.67974,1.43408 -1.72683,2.5375v27.79583c0,1.61083 1.31039,2.91667 2.92683,2.91667h36.14634c1.61644,0 2.92683,-1.30584 2.92683,-2.91667v-27.79583c-0.04709,-1.10342 -0.71555,-2.08569 -1.72683,-2.5375zM39.07317,39.22917h-36.14634v-27.94167l18.0878,-8.07917l18.0878,8.07917v0zM31.02439,25.75417c2.35455,-1.30752 3.42063,-4.11586 2.52402,-6.64899c-0.89661,-2.53313 -3.49483,-4.05348 -6.15151,-3.59956c-2.65668,0.45392 -4.59828,2.74995 -4.5969,5.43604c0.00575,2.02059 1.13199,3.87244 2.92683,4.8125c-2.40876,0.896 -4.20958,2.9313 -4.8,5.425c-0.62092,-2.49704 -2.43925,-4.52738 -4.85854,-5.425c2.21861,-1.22355 3.32568,-3.78776 2.69164,-6.23437c-0.63405,-2.44662 -2.84863,-4.15598 -5.38432,-4.15598c-2.53569,0 -4.75028,1.70936 -5.38432,4.15598c-0.63405,2.44662 0.47303,5.01083 2.69164,6.23437c-3.01193,1.11586 -5.01647,3.97286 -5.03415,7.175v1.45833h30.40976v-1.45833c-0.01768,-3.20214 -2.02222,-6.05914 -5.03415,-7.175zM13.46341,18.31667c1.4548,0 2.63415,1.17525 2.63415,2.625c0,1.44975 -1.17935,2.625 -2.63415,2.625c-1.4548,0 -2.63415,-1.17525 -2.63415,-2.625c-0.00079,-1.41625 1.12594,-2.57779 2.54634,-2.625zM8.78049,31.47083c0.6248,-1.98097 2.46747,-3.32865 4.55122,-3.32865c2.08375,0 3.92642,1.34768 4.55122,3.32865zM28.33171,18.31667c1.068,-0.01183 2.03745,0.62018 2.4544,1.60008c0.41695,0.9799 0.19887,2.11371 -0.55213,2.87051c-0.751,0.7568 -1.88626,0.98679 -2.87417,0.58225c-0.98791,-0.40453 -1.63291,-1.3635 -1.63298,-2.42785c-0.00009,-1.43843 1.16152,-2.60902 2.60488,-2.625zM23.79512,31.47083c0.6248,-1.98097 2.46747,-3.32865 4.55122,-3.32865c2.08375,0 3.92642,1.34768 4.55122,3.32865z" vector-effect="non-scaling-stroke"/></g><defs><path id="path-1685898040135159363" d="M40.27317,8.75l-19.25854,-8.75l-19.2878,8.75c-1.01128,0.45181 -1.67974,1.43408 -1.72683,2.5375v27.79583c0,1.61083 1.31039,2.91667 2.92683,2.91667h36.14634c1.61644,0 2.92683,-1.30584 2.92683,-2.91667v-27.79583c-0.04709,-1.10342 -0.71555,-2.08569 -1.72683,-2.5375zM39.07317,39.22917h-36.14634v-27.94167l18.0878,-8.07917l18.0878,8.07917v0zM31.02439,25.75417c2.35455,-1.30752 3.42063,-4.11586 2.52402,-6.64899c-0.89661,-2.53313 -3.49483,-4.05348 -6.15151,-3.59956c-2.65668,0.45392 -4.59828,2.74995 -4.5969,5.43604c0.00575,2.02059 1.13199,3.87244 2.92683,4.8125c-2.40876,0.896 -4.20958,2.9313 -4.8,5.425c-0.62092,-2.49704 -2.43925,-4.52738 -4.85854,-5.425c2.21861,-1.22355 3.32568,-3.78776 2.69164,-6.23437c-0.63405,-2.44662 -2.84863,-4.15598 -5.38432,-4.15598c-2.53569,0 -4.75028,1.70936 -5.38432,4.15598c-0.63405,2.44662 0.47303,5.01083 2.69164,6.23437c-3.01193,1.11586 -5.01647,3.97286 -5.03415,7.175v1.45833h30.40976v-1.45833c-0.01768,-3.20214 -2.02222,-6.05914 -5.03415,-7.175zM13.46341,18.31667c1.4548,0 2.63415,1.17525 2.63415,2.625c0,1.44975 -1.17935,2.625 -2.63415,2.625c-1.4548,0 -2.63415,-1.17525 -2.63415,-2.625c-0.00079,-1.41625 1.12594,-2.57779 2.54634,-2.625zM8.78049,31.47083c0.6248,-1.98097 2.46747,-3.32865 4.55122,-3.32865c2.08375,0 3.92642,1.34768 4.55122,3.32865zM28.33171,18.31667c1.068,-0.01183 2.03745,0.62018 2.4544,1.60008c0.41695,0.9799 0.19887,2.11371 -0.55213,2.87051c-0.751,0.7568 -1.88626,0.98679 -2.87417,0.58225c-0.98791,-0.40453 -1.63291,-1.3635 -1.63298,-2.42785c-0.00009,-1.43843 1.16152,-2.60902 2.60488,-2.625zM23.79512,31.47083c0.6248,-1.98097 2.46747,-3.32865 4.55122,-3.32865c2.08375,0 3.92642,1.34768 4.55122,3.32865z" vector-effect="non-scaling-stroke"/></defs></g></svg>