<svg version="1.2" xmlns="http://www.w3.org/2000/svg" xmlns:xlink="http://www.w3.org/1999/xlink" overflow="visible" preserveAspectRatio="none" viewBox="0 0 27.000003171931 32.00000157094041" width="27.000003171931" height="32.00000157094041"><g transform="translate(0, 0)"><g transform="translate(0.000030000000000640625, 0.000012469198177000328) rotate(0)"><path style="stroke-width: 0; stroke-linecap: butt; stroke-linejoin: miter; fill: rgb(255, 255, 255);" d="M26.02047,4.5684c-1.34526,-1.30856 -3.51371,-1.30856 -4.85897,0l-7.35657,7.24228h-2.04349v-1.98327c-0.10374,-1.18755 0.44038,-2.34035 1.43044,-3.03062l0.63575,-0.31198v-1.31475c0,-2.85524 -2.35842,-5.16988 -5.26767,-5.16988h-0.97634c-1.40492,-0.01189 -2.75647,0.52754 -3.7542,1.49837c-0.99772,0.97083 -1.55894,2.29261 -1.55889,3.6715v1.31475l0.63575,0.31198c0.9975,0.68418 1.54372,1.84144 1.43044,3.03062v1.98327h-4.33675l2.27055,18.20599c0.12787,1.13411 1.10796,1.99019 2.27055,1.98327h16.30253c1.15486,0.00819 2.13199,-0.83573 2.27055,-1.96099l2.27055,-18.22827h-1.92997l2.54301,-2.47352c1.32743,-1.31913 1.33752,-3.43752 0.02271,-4.76877zM4.54109,5.17007v0c-0.00009,-0.78791 0.3219,-1.54292 0.89383,-2.09586c0.57193,-0.55293 1.34598,-0.85756 2.1487,-0.84562h0.97634c1.65527,0 2.99712,1.31695 2.99712,2.94148v0c-1.37683,1.16164 -2.13774,2.87678 -2.0662,4.65735v1.98327h-2.83818v-1.98327c0.06033,-1.78796 -0.71789,-3.50439 -2.11161,-4.65735zM22.70547,14.08365l-0.68116,5.34815h-18.77743l-0.68116,-5.34815zM22.0016,20.50143l-0.74928,5.90525h-17.11993l-0.74928,-5.90525zM4.54109,29.74926l-0.27247,-2.22839h16.84746l-0.27247,2.22839zM24.38568,7.75501l-4.10969,4.05568h-3.26959l5.69907,-5.66012c0.28563,-0.31544 0.72583,-0.44957 1.14327,-0.34837c0.41743,0.1012 0.74336,0.42108 0.84648,0.83077c0.10312,0.40968 -0.03355,0.84171 -0.35495,1.12204z" vector-effect="non-scaling-stroke"/></g><defs><path id="path-168586231773910444" d="M26.02047,4.5684c-1.34526,-1.30856 -3.51371,-1.30856 -4.85897,0l-7.35657,7.24228h-2.04349v-1.98327c-0.10374,-1.18755 0.44038,-2.34035 1.43044,-3.03062l0.63575,-0.31198v-1.31475c0,-2.85524 -2.35842,-5.16988 -5.26767,-5.16988h-0.97634c-1.40492,-0.01189 -2.75647,0.52754 -3.7542,1.49837c-0.99772,0.97083 -1.55894,2.29261 -1.55889,3.6715v1.31475l0.63575,0.31198c0.9975,0.68418 1.54372,1.84144 1.43044,3.03062v1.98327h-4.33675l2.27055,18.20599c0.12787,1.13411 1.10796,1.99019 2.27055,1.98327h16.30253c1.15486,0.00819 2.13199,-0.83573 2.27055,-1.96099l2.27055,-18.22827h-1.92997l2.54301,-2.47352c1.32743,-1.31913 1.33752,-3.43752 0.02271,-4.76877zM4.54109,5.17007v0c-0.00009,-0.78791 0.3219,-1.54292 0.89383,-2.09586c0.57193,-0.55293 1.34598,-0.85756 2.1487,-0.84562h0.97634c1.65527,0 2.99712,1.31695 2.99712,2.94148v0c-1.37683,1.16164 -2.13774,2.87678 -2.0662,4.65735v1.98327h-2.83818v-1.98327c0.06033,-1.78796 -0.71789,-3.50439 -2.11161,-4.65735zM22.70547,14.08365l-0.68116,5.34815h-18.77743l-0.68116,-5.34815zM22.0016,20.50143l-0.74928,5.90525h-17.11993l-0.74928,-5.90525zM4.54109,29.74926l-0.27247,-2.22839h16.84746l-0.27247,2.22839zM24.38568,7.75501l-4.10969,4.05568h-3.26959l5.69907,-5.66012c0.28563,-0.31544 0.72583,-0.44957 1.14327,-0.34837c0.41743,0.1012 0.74336,0.42108 0.84648,0.83077c0.10312,0.40968 -0.03355,0.84171 -0.35495,1.12204z" vector-effect="non-scaling-stroke"/></defs></g></svg>