<svg version="1.2" xmlns="http://www.w3.org/2000/svg" xmlns:xlink="http://www.w3.org/1999/xlink" overflow="visible" preserveAspectRatio="none" viewBox="0 0 32 31.99999" width="32" height="31.99999"><g transform="translate(0, 0)"><g transform="translate(2.7755575615628914e-15, -0.000010000000000287557) rotate(0)"><path style="stroke-width: 0; stroke-linecap: butt; stroke-linejoin: miter; fill: rgb(255, 255, 255);" d="M22.06506,16.84422v-11.90476h-4.66195v-1.0926c4.87929,-0.01175 9.75355,-0.31579 14.59689,-0.9105l-0.31683,-2.25348c-4.7385,0.5783 -9.50682,0.87473 -14.28006,0.88774v-0.43249c0,-0.62857 -0.50661,-1.13812 -1.13154,-1.13812c-0.62493,0 -1.13154,0.50955 -1.13154,1.13812v0.43249c-4.94678,0.00349 -9.88926,-0.29296 -14.80057,-0.88774l-0.33946,2.23072c5.0219,0.63358 10.07879,0.9453 15.14003,0.93326v1.0926h-4.72984v14.59073c0.00158,1.81048 0.71792,3.54623 1.99151,4.82564l5.81612,5.84995c1.13056,1.14822 2.67056,1.79422 4.27723,1.79422c1.60667,0 3.14666,-0.646 4.27723,-1.79422c1.14158,-1.13714 1.78384,-2.68609 1.78384,-4.3021c0,-1.61601 -0.64227,-3.16497 -1.78384,-4.3021zM15.27581,7.2157c0.19435,0.37661 0.57425,0.61978 0.99576,0.63735c0.4261,-0.00238 0.81315,-0.25012 0.99576,-0.63735h2.53465v1.18365h-7.12871v-1.18365zM12.67327,19.53018v-1.66166c1.82383,0.31006 3.16116,1.89536 3.16832,3.7558c0.00256,0.81298 -0.24225,1.60728 -0.70156,2.27625l-1.15417,-1.13812c-0.84724,-0.85914 -1.31954,-2.0222 -1.31259,-3.23227zM25.18812,28.63517c-1.48323,1.4845 -3.88028,1.4845 -5.36351,0l-3.14569,-3.18674c1.39994,-1.71895 1.75129,-4.07107 0.91537,-6.1279c-0.83592,-2.05683 -2.7248,-3.48787 -4.92103,-3.72824v-6.05481h7.12871v8.26277l5.38614,5.41746c1.47592,1.49186 1.47592,3.90284 0,5.3947z" vector-effect="non-scaling-stroke"/></g><defs><path id="path-1685896799644144360" d="M22.06506,16.84422v-11.90476h-4.66195v-1.0926c4.87929,-0.01175 9.75355,-0.31579 14.59689,-0.9105l-0.31683,-2.25348c-4.7385,0.5783 -9.50682,0.87473 -14.28006,0.88774v-0.43249c0,-0.62857 -0.50661,-1.13812 -1.13154,-1.13812c-0.62493,0 -1.13154,0.50955 -1.13154,1.13812v0.43249c-4.94678,0.00349 -9.88926,-0.29296 -14.80057,-0.88774l-0.33946,2.23072c5.0219,0.63358 10.07879,0.9453 15.14003,0.93326v1.0926h-4.72984v14.59073c0.00158,1.81048 0.71792,3.54623 1.99151,4.82564l5.81612,5.84995c1.13056,1.14822 2.67056,1.79422 4.27723,1.79422c1.60667,0 3.14666,-0.646 4.27723,-1.79422c1.14158,-1.13714 1.78384,-2.68609 1.78384,-4.3021c0,-1.61601 -0.64227,-3.16497 -1.78384,-4.3021zM15.27581,7.2157c0.19435,0.37661 0.57425,0.61978 0.99576,0.63735c0.4261,-0.00238 0.81315,-0.25012 0.99576,-0.63735h2.53465v1.18365h-7.12871v-1.18365zM12.67327,19.53018v-1.66166c1.82383,0.31006 3.16116,1.89536 3.16832,3.7558c0.00256,0.81298 -0.24225,1.60728 -0.70156,2.27625l-1.15417,-1.13812c-0.84724,-0.85914 -1.31954,-2.0222 -1.31259,-3.23227zM25.18812,28.63517c-1.48323,1.4845 -3.88028,1.4845 -5.36351,0l-3.14569,-3.18674c1.39994,-1.71895 1.75129,-4.07107 0.91537,-6.1279c-0.83592,-2.05683 -2.7248,-3.48787 -4.92103,-3.72824v-6.05481h7.12871v8.26277l5.38614,5.41746c1.47592,1.49186 1.47592,3.90284 0,5.3947z" vector-effect="non-scaling-stroke"/></defs></g></svg>