<svg version="1.2" xmlns="http://www.w3.org/2000/svg" xmlns:xlink="http://www.w3.org/1999/xlink" overflow="visible" preserveAspectRatio="none" viewBox="0 0 45.000007653605124 41.99998" width="45.000007653605124" height="41.99998"><g transform="translate(0, 0)"><g transform="translate(0.000010000000000065512, -0.000009999999998733244) rotate(0)"><path style="stroke-width: 0; stroke-linecap: butt; stroke-linejoin: miter; fill: rgb(255, 255, 255);" d="M33.59649,27.50416c0,-0.80541 -0.65455,-1.45833 -1.46199,-1.45833h-8.07017v-14.99166h15.32163c0.98699,0.01461 1.84382,-0.67553 2.0374,-1.64104c0.19359,-0.96551 -0.33123,-1.93128 -1.24793,-2.29646l-17.5731,-7.11666l-17.54386,7.11666c-0.9167,0.36518 -1.44151,1.33096 -1.24793,2.29646c0.19359,0.96551 1.05042,1.65565 2.0374,1.64104h15.2924v14.99166h-8.04093c-0.80743,0 -1.46199,0.65292 -1.46199,1.45833c0,0.80541 0.65455,1.45833 1.46199,1.45833h8.04093v13.0375h2.92398v-13.0375h8.09941c0.79599,-0.01588 1.43291,-0.66417 1.43275,-1.45833zM10.20468,8.1375l12.2807,-4.9875l12.2807,4.9875zM43.538,22.39999c-0.80743,0 -1.46199,0.65292 -1.46199,1.45833v7.58333h-6.72515c-1.61487,0 -2.92398,1.30584 -2.92398,2.91667v7.64166h2.92398v-7.64166h6.72515v7.64166h2.92398v-18.14166c0.00245,-0.76197 -0.58359,-1.39738 -1.34503,-1.45833zM9.64912,31.44165h-6.72515v-7.58333c0,-0.80541 -0.65455,-1.45833 -1.46199,-1.45833c-0.80743,0 -1.46199,0.65292 -1.46199,1.45833v18.14166h2.92398v-7.64166h6.72515v7.64166h2.92398v-7.6125c0.00781,-0.77859 -0.29681,-1.52797 -0.84601,-2.08127c-0.5492,-0.55331 -1.29739,-0.8646 -2.07797,-0.86456z" vector-effect="non-scaling-stroke"/></g><defs><path id="path-1685898040131159353" d="M33.59649,27.50416c0,-0.80541 -0.65455,-1.45833 -1.46199,-1.45833h-8.07017v-14.99166h15.32163c0.98699,0.01461 1.84382,-0.67553 2.0374,-1.64104c0.19359,-0.96551 -0.33123,-1.93128 -1.24793,-2.29646l-17.5731,-7.11666l-17.54386,7.11666c-0.9167,0.36518 -1.44151,1.33096 -1.24793,2.29646c0.19359,0.96551 1.05042,1.65565 2.0374,1.64104h15.2924v14.99166h-8.04093c-0.80743,0 -1.46199,0.65292 -1.46199,1.45833c0,0.80541 0.65455,1.45833 1.46199,1.45833h8.04093v13.0375h2.92398v-13.0375h8.09941c0.79599,-0.01588 1.43291,-0.66417 1.43275,-1.45833zM10.20468,8.1375l12.2807,-4.9875l12.2807,4.9875zM43.538,22.39999c-0.80743,0 -1.46199,0.65292 -1.46199,1.45833v7.58333h-6.72515c-1.61487,0 -2.92398,1.30584 -2.92398,2.91667v7.64166h2.92398v-7.64166h6.72515v7.64166h2.92398v-18.14166c0.00245,-0.76197 -0.58359,-1.39738 -1.34503,-1.45833zM9.64912,31.44165h-6.72515v-7.58333c0,-0.80541 -0.65455,-1.45833 -1.46199,-1.45833c-0.80743,0 -1.46199,0.65292 -1.46199,1.45833v18.14166h2.92398v-7.64166h6.72515v7.64166h2.92398v-7.6125c0.00781,-0.77859 -0.29681,-1.52797 -0.84601,-2.08127c-0.5492,-0.55331 -1.29739,-0.8646 -2.07797,-0.86456z" vector-effect="non-scaling-stroke"/></defs></g></svg>