<svg version="1.2" xmlns="http://www.w3.org/2000/svg" xmlns:xlink="http://www.w3.org/1999/xlink" overflow="visible" preserveAspectRatio="none" viewBox="0 0 26.00001173982568 31.99999825455191" width="26.00001173982568" height="31.99999825455191"><g transform="translate(0, 0)"><g transform="translate(0.000010000000000509601, 0.0018491272759563189) rotate(0)"><path style="stroke-width: 0; stroke-linecap: butt; stroke-linejoin: miter; fill: rgb(255, 255, 255);" d="M23.67659,0.00095h-21.46383c-1.22208,0 -2.21277,1.001 -2.21277,2.23581v27.52278c0,1.2348 0.99069,2.23581 2.21277,2.23581h21.46383c0.60579,0.03064 1.19746,-0.19132 1.63669,-0.61398c0.43922,-0.42266 0.68748,-1.00897 0.68672,-1.62183v-27.52278c0.00076,-0.61286 -0.2475,-1.19917 -0.68672,-1.62183c-0.43922,-0.42266 -1.0309,-0.64462 -1.63669,-0.61398zM23.67659,29.87318h-21.46383v-23.94549h21.55234zM23.67659,4.80978h-21.46383v-2.57118h21.48596zM12.98894,26.56418c4.97385,0 9.00596,-4.07409 9.00596,-9.09973c0,-5.02564 -4.0321,-9.09973 -9.00596,-9.09973c-4.97385,0 -9.00596,4.07409 -9.00596,9.09973c0,5.02564 4.0321,9.09973 9.00596,9.09973zM12.98894,10.60052c3.75178,0 6.79319,3.07308 6.79319,6.86393c0,3.79084 -3.04142,6.86393 -6.79319,6.86393c-3.75178,0 -6.79319,-3.07308 -6.79319,-6.86393c-0.0059,-1.82225 0.70791,-3.57158 1.98316,-4.86011c1.27525,-1.28853 3.00656,-2.00978 4.81003,-2.00381zM12.98894,13.52943v-1.1179c-2.75325,0.01231 -4.97875,2.27098 -4.97872,5.05292h1.10638c-0.00003,-2.16455 1.73013,-3.92272 3.87234,-3.93502zM12.98894,22.47266c2.7447,0.00011 4.97656,-2.23503 5.00085,-5.00821h-1.10638c0.00002,1.04159 -0.411,2.04019 -1.14199,2.7746c-0.731,0.73441 -1.72164,1.14401 -2.75247,1.13806z" vector-effect="non-scaling-stroke"/></g><defs><path id="path-1685896799655144371" d="M23.67659,0.00095h-21.46383c-1.22208,0 -2.21277,1.001 -2.21277,2.23581v27.52278c0,1.2348 0.99069,2.23581 2.21277,2.23581h21.46383c0.60579,0.03064 1.19746,-0.19132 1.63669,-0.61398c0.43922,-0.42266 0.68748,-1.00897 0.68672,-1.62183v-27.52278c0.00076,-0.61286 -0.2475,-1.19917 -0.68672,-1.62183c-0.43922,-0.42266 -1.0309,-0.64462 -1.63669,-0.61398zM23.67659,29.87318h-21.46383v-23.94549h21.55234zM23.67659,4.80978h-21.46383v-2.57118h21.48596zM12.98894,26.56418c4.97385,0 9.00596,-4.07409 9.00596,-9.09973c0,-5.02564 -4.0321,-9.09973 -9.00596,-9.09973c-4.97385,0 -9.00596,4.07409 -9.00596,9.09973c0,5.02564 4.0321,9.09973 9.00596,9.09973zM12.98894,10.60052c3.75178,0 6.79319,3.07308 6.79319,6.86393c0,3.79084 -3.04142,6.86393 -6.79319,6.86393c-3.75178,0 -6.79319,-3.07308 -6.79319,-6.86393c-0.0059,-1.82225 0.70791,-3.57158 1.98316,-4.86011c1.27525,-1.28853 3.00656,-2.00978 4.81003,-2.00381zM12.98894,13.52943v-1.1179c-2.75325,0.01231 -4.97875,2.27098 -4.97872,5.05292h1.10638c-0.00003,-2.16455 1.73013,-3.92272 3.87234,-3.93502zM12.98894,22.47266c2.7447,0.00011 4.97656,-2.23503 5.00085,-5.00821h-1.10638c0.00002,1.04159 -0.411,2.04019 -1.14199,2.7746c-0.731,0.73441 -1.72164,1.14401 -2.75247,1.13806z" vector-effect="non-scaling-stroke"/></defs></g></svg>